<?xml version="1.0" encoding="UTF-8" standalone="no"?>
<!-- Generator: Adobe Illustrator 21.0.0, SVG Export Plug-In . SVG Version: 6.00 Build 0)  -->

<svg id="svg" version="1.1" xmlns="http://www.w3.org/2000/svg" xmlns:xlink="http://www.w3.org/1999/xlink" width="64" height="48.96256684491976" viewBox="0, 0, 400,260.96256684491976"><g id="svgg"><path id="path0" d="M198.081 26.492 C 197.731 27.406,197.886 238.297,198.238 238.580 C 198.635 238.900,206.983 238.559,212.533 237.997 C 214.615 237.786,217.927 237.549,219.892 237.469 C 221.858 237.390,223.914 237.167,224.461 236.975 C 225.009 236.782,226.741 236.537,228.311 236.430 C 229.881 236.323,231.588 236.087,232.103 235.905 C 232.619 235.723,234.034 235.486,235.248 235.379 C 236.462 235.271,237.891 235.029,238.424 234.841 C 238.956 234.653,240.252 234.420,241.302 234.323 C 242.352 234.226,243.481 233.976,243.811 233.769 C 244.141 233.562,245.257 233.294,246.292 233.173 C 247.326 233.053,248.525 232.766,248.956 232.536 C 249.386 232.306,250.243 232.117,250.859 232.116 C 251.475 232.116,252.440 231.880,253.003 231.593 C 253.566 231.305,254.413 231.067,254.885 231.062 C 255.358 231.057,256.214 230.826,256.789 230.548 C 257.363 230.271,258.185 230.039,258.616 230.033 C 259.047 230.028,259.752 229.831,260.183 229.597 C 260.614 229.363,261.539 229.075,262.239 228.957 C 262.940 228.838,263.703 228.576,263.937 228.374 C 264.170 228.172,264.875 227.929,265.503 227.833 C 266.132 227.738,266.892 227.487,267.193 227.276 C 267.494 227.065,267.983 226.893,268.280 226.893 C 268.576 226.893,269.285 226.655,269.853 226.364 C 270.422 226.074,271.328 225.717,271.867 225.571 C 272.405 225.425,272.846 225.206,272.846 225.084 C 272.846 224.962,273.273 224.782,273.795 224.684 C 274.317 224.586,275.167 224.279,275.684 224.002 C 276.201 223.725,276.813 223.499,277.045 223.499 C 277.276 223.499,277.737 223.264,278.068 222.977 C 278.399 222.689,278.818 222.454,278.998 222.454 C 279.872 222.454,281.913 220.404,282.208 219.229 C 282.372 218.579,282.624 217.974,282.767 217.885 C 283.142 217.653,283.089 216.282,282.673 215.457 C 282.478 215.069,282.239 214.238,282.143 213.609 C 282.046 212.981,281.795 212.220,281.584 211.919 C 281.374 211.618,281.201 211.191,281.201 210.969 C 281.201 210.748,280.948 210.098,280.639 209.526 C 279.600 207.601,279.123 169.522,280.123 168.317 C 280.451 167.923,282.139 167.885,299.575 167.881 C 310.076 167.879,318.803 167.791,318.968 167.685 C 319.578 167.294,319.555 136.065,318.944 135.618 C 318.354 135.186,288.006 135.078,284.762 135.496 C 282.722 135.759,281.090 135.271,280.318 134.168 C 279.713 133.305,279.665 73.101,280.268 72.601 C 280.723 72.223,282.553 72.683,283.521 73.418 C 283.863 73.678,284.315 73.890,284.524 73.890 C 284.733 73.890,285.203 74.125,285.568 74.413 C 285.934 74.700,286.404 74.935,286.613 74.935 C 286.822 74.935,287.292 75.170,287.657 75.457 C 288.022 75.744,288.533 75.979,288.793 75.979 C 289.052 75.979,289.328 76.082,289.406 76.208 C 289.578 76.487,294.161 79.112,294.474 79.112 C 294.597 79.112,294.910 79.347,295.170 79.634 C 295.430 79.922,295.782 80.157,295.953 80.157 C 296.256 80.157,296.941 80.581,301.680 83.709 C 302.963 84.555,304.608 85.584,305.335 85.995 C 306.063 86.405,306.745 86.893,306.852 87.079 C 306.959 87.264,307.606 87.740,308.288 88.136 C 308.971 88.531,309.912 89.185,310.378 89.589 C 310.845 89.993,311.844 90.721,312.598 91.207 C 313.352 91.693,314.432 92.519,314.999 93.043 C 315.565 93.566,316.120 93.995,316.231 93.995 C 316.433 93.995,320.524 97.207,321.018 97.753 C 321.162 97.912,321.749 98.350,322.324 98.727 C 322.898 99.103,323.779 99.796,324.282 100.266 C 327.069 102.875,327.870 103.581,328.474 103.963 C 328.841 104.194,329.793 104.980,330.591 105.710 C 331.389 106.439,332.117 106.960,332.209 106.868 C 332.301 106.777,332.376 99.978,332.376 91.759 L 332.376 76.817 329.974 74.505 C 328.653 73.234,327.069 71.701,326.453 71.100 C 325.838 70.498,324.892 69.680,324.351 69.282 C 323.810 68.884,322.428 67.780,321.279 66.829 C 320.131 65.878,318.662 64.739,318.016 64.298 C 317.369 63.857,316.602 63.269,316.311 62.992 C 316.019 62.716,314.962 61.937,313.961 61.263 C 312.960 60.589,311.847 59.820,311.488 59.554 C 310.913 59.129,306.194 56.027,303.655 54.406 C 302.466 53.647,298.502 51.360,296.345 50.189 C 295.411 49.682,294.236 49.015,293.734 48.706 C 292.403 47.888,283.915 43.777,281.332 42.700 C 280.901 42.520,280.020 42.139,279.373 41.853 C 276.436 40.552,274.935 39.929,273.238 39.306 C 272.232 38.938,271.077 38.461,270.671 38.247 C 270.264 38.034,269.731 37.859,269.486 37.859 C 269.241 37.859,268.579 37.624,268.016 37.337 C 267.452 37.050,266.794 36.815,266.553 36.815 C 266.312 36.815,265.602 36.582,264.976 36.298 C 264.350 36.014,263.573 35.779,263.250 35.776 C 262.926 35.773,262.223 35.535,261.687 35.248 C 261.151 34.961,260.498 34.726,260.236 34.726 C 259.973 34.726,259.031 34.493,258.143 34.209 C 256.620 33.721,254.960 33.244,251.305 32.245 C 250.444 32.009,249.057 31.708,248.224 31.576 C 247.390 31.443,246.493 31.220,246.231 31.079 C 245.968 30.939,244.887 30.692,243.829 30.532 C 242.772 30.372,241.377 30.076,240.731 29.874 C 240.085 29.673,238.734 29.399,237.728 29.264 C 236.723 29.130,234.726 28.829,233.290 28.596 C 228.783 27.862,227.360 27.665,224.674 27.399 C 223.238 27.257,220.477 26.952,218.538 26.721 C 213.029 26.064,198.309 25.899,198.081 26.492 M164.883 29.258 C 163.734 29.371,162.441 29.600,162.010 29.767 C 161.580 29.934,160.463 30.223,159.530 30.410 C 157.267 30.863,155.905 31.211,151.567 32.443 C 149.556 33.014,147.467 33.587,146.923 33.715 C 146.380 33.844,145.734 34.056,145.487 34.186 C 145.241 34.317,143.805 34.809,142.298 35.280 C 140.790 35.750,139.262 36.287,138.903 36.473 C 138.544 36.659,138.048 36.812,137.801 36.813 C 137.553 36.814,136.848 37.035,136.234 37.304 C 135.620 37.573,134.706 37.938,134.204 38.115 C 131.578 39.039,127.950 40.468,125.196 41.665 C 124.765 41.852,122.591 42.786,120.366 43.741 C 118.140 44.695,116.142 45.584,115.927 45.716 C 115.711 45.848,115.242 46.093,114.883 46.259 C 112.356 47.429,107.052 50.094,105.091 51.178 C 103.799 51.893,102.364 52.655,101.903 52.870 C 101.442 53.086,100.063 53.909,98.838 54.699 C 97.613 55.489,96.532 56.136,96.436 56.136 C 96.161 56.136,88.738 61.105,87.775 61.934 C 87.297 62.345,86.437 62.977,85.863 63.340 C 84.061 64.477,80.709 67.879,80.000 69.290 C 78.999 71.285,79.463 75.682,80.847 77.303 C 81.039 77.528,81.313 78.324,81.455 79.072 C 81.596 79.820,81.846 80.681,82.009 80.986 C 82.474 81.855,82.342 181.557,81.875 182.481 C 81.686 182.854,81.449 183.616,81.348 184.174 C 81.247 184.732,80.937 185.611,80.660 186.128 C 80.383 186.645,80.157 187.249,80.157 187.471 C 80.157 187.692,79.955 188.161,79.709 188.512 C 77.765 191.288,79.732 197.066,83.255 198.927 C 83.633 199.127,84.648 199.845,85.509 200.523 C 86.371 201.202,87.428 201.940,87.859 202.165 C 88.290 202.390,89.034 202.937,89.513 203.382 C 89.993 203.826,90.756 204.349,91.211 204.544 C 91.665 204.739,92.440 205.265,92.932 205.713 C 93.425 206.161,93.992 206.527,94.194 206.527 C 94.395 206.527,95.049 206.923,95.648 207.406 C 96.247 207.889,97.036 208.447,97.402 208.646 C 98.254 209.108,99.433 209.831,101.085 210.901 C 101.806 211.367,102.544 211.749,102.726 211.749 C 102.908 211.749,103.374 212.043,103.761 212.402 C 104.149 212.761,104.586 213.055,104.733 213.055 C 104.880 213.055,105.793 213.518,106.761 214.083 C 107.729 214.649,109.571 215.660,110.853 216.330 C 113.965 217.956,114.297 218.123,115.666 218.744 C 116.312 219.038,117.957 219.818,119.321 220.478 C 120.685 221.137,121.993 221.676,122.227 221.674 C 122.460 221.672,122.798 221.847,122.977 222.063 C 123.155 222.278,123.565 222.454,123.887 222.454 C 124.209 222.454,124.762 222.682,125.116 222.960 C 125.470 223.239,126.073 223.545,126.457 223.642 C 126.841 223.738,127.591 224.039,128.124 224.310 C 128.656 224.582,129.347 224.804,129.658 224.804 C 129.969 224.804,130.370 224.980,130.548 225.196 C 130.727 225.411,131.065 225.589,131.298 225.590 C 131.532 225.591,132.352 225.885,133.120 226.243 C 133.888 226.600,134.715 226.893,134.958 226.893 C 135.200 226.893,135.860 227.128,136.423 227.415 C 136.986 227.702,137.760 227.937,138.143 227.937 C 138.526 227.937,138.983 228.110,139.159 228.322 C 139.334 228.534,139.907 228.776,140.431 228.861 C 140.955 228.945,141.867 229.242,142.457 229.520 C 143.047 229.798,143.873 230.026,144.292 230.026 C 144.711 230.026,145.309 230.205,145.622 230.424 C 145.935 230.644,146.867 230.948,147.693 231.101 C 148.519 231.253,149.432 231.544,149.721 231.747 C 150.010 231.949,150.720 232.116,151.298 232.116 C 151.877 232.117,152.702 232.305,153.133 232.534 C 153.564 232.763,154.709 233.053,155.677 233.178 C 156.645 233.303,157.702 233.577,158.027 233.786 C 158.351 233.996,159.497 234.249,160.574 234.350 C 161.651 234.451,162.826 234.682,163.185 234.863 C 163.544 235.044,164.661 235.234,165.666 235.286 L 167.493 235.379 167.624 132.507 C 167.759 26.493,167.767 28.958,167.270 29.017 C 167.106 29.037,166.031 29.145,164.883 29.258 " stroke="none" fill="#ab8b04" fill-rule="evenodd"></path><path id="path1" d="M182.507 0.261 C 182.507 0.426,180.686 0.522,177.567 0.522 C 172.431 0.522,171.802 0.597,171.802 1.203 C 171.802 1.495,171.138 1.567,168.429 1.567 C 164.848 1.567,164.230 1.667,164.230 2.247 C 164.230 2.533,163.684 2.612,161.684 2.615 C 158.852 2.618,157.963 2.773,157.963 3.263 C 157.963 3.499,157.244 3.625,155.452 3.703 C 153.591 3.784,152.864 3.917,152.645 4.214 C 152.449 4.481,151.705 4.669,150.421 4.776 C 148.991 4.895,148.346 5.074,147.924 5.471 C 147.473 5.895,147.009 6.005,145.673 6.005 C 144.273 6.005,143.935 6.093,143.664 6.527 C 143.388 6.969,143.055 7.050,141.512 7.050 C 139.861 7.050,139.687 7.099,139.687 7.572 C 139.687 8.039,139.513 8.094,138.030 8.094 C 136.705 8.094,136.279 8.199,135.901 8.616 C 135.541 9.013,135.097 9.138,134.042 9.138 C 132.923 9.138,132.602 9.239,132.376 9.661 C 132.148 10.087,131.829 10.183,130.645 10.183 C 129.414 10.183,129.173 10.262,129.057 10.705 C 128.953 11.105,128.700 11.228,127.972 11.231 C 126.637 11.236,125.849 11.488,125.849 11.910 C 125.849 12.162,125.506 12.272,124.714 12.272 C 123.911 12.272,123.441 12.424,123.107 12.794 C 122.787 13.148,122.303 13.316,121.606 13.316 C 120.819 13.316,120.548 13.431,120.449 13.807 C 120.351 14.183,120.009 14.328,118.994 14.426 C 118.257 14.496,117.541 14.724,117.384 14.938 C 117.229 15.150,116.648 15.408,116.094 15.512 C 115.414 15.639,115.043 15.865,114.954 16.205 C 114.852 16.595,114.590 16.710,113.808 16.710 C 113.142 16.710,112.614 16.889,112.272 17.232 C 111.943 17.561,111.401 17.755,110.811 17.755 C 110.092 17.755,109.841 17.877,109.736 18.277 C 109.629 18.686,109.380 18.799,108.586 18.799 C 107.746 18.799,107.572 18.889,107.572 19.321 C 107.572 19.756,107.398 19.843,106.527 19.843 C 105.657 19.843,105.483 19.930,105.483 20.366 C 105.483 20.803,105.309 20.888,104.414 20.888 C 103.565 20.888,103.317 20.995,103.209 21.410 C 103.102 21.819,102.853 21.932,102.058 21.932 C 101.218 21.932,101.044 22.022,101.044 22.454 C 101.044 22.889,100.870 22.977,100.000 22.977 C 99.130 22.977,98.956 23.064,98.956 23.499 C 98.956 23.934,98.782 24.021,97.911 24.021 C 97.052 24.021,96.867 24.111,96.867 24.527 C 96.867 24.923,96.655 25.051,95.898 25.115 C 95.187 25.174,94.892 25.336,94.788 25.722 C 94.711 26.011,94.442 26.261,94.191 26.277 C 93.939 26.293,93.507 26.320,93.229 26.338 C 92.952 26.356,92.650 26.606,92.559 26.893 C 92.436 27.279,92.164 27.415,91.514 27.415 C 90.865 27.415,90.592 27.551,90.470 27.937 C 90.379 28.225,90.077 28.460,89.800 28.460 C 89.522 28.460,89.060 28.695,88.773 28.982 C 88.486 29.269,88.016 29.504,87.728 29.504 C 87.380 29.504,87.206 29.678,87.206 30.026 C 87.206 30.451,87.032 30.548,86.268 30.548 C 85.549 30.548,85.298 30.671,85.193 31.070 C 85.118 31.360,84.837 31.593,84.565 31.593 C 84.294 31.593,83.838 31.828,83.551 32.115 C 83.264 32.402,82.802 32.637,82.524 32.637 C 82.247 32.637,81.949 32.860,81.862 33.132 C 81.765 33.438,81.361 33.691,80.800 33.796 C 80.261 33.898,79.896 34.119,79.896 34.346 C 79.896 34.557,79.653 34.726,79.349 34.726 C 79.031 34.726,78.748 34.934,78.672 35.223 C 78.590 35.539,78.220 35.782,77.659 35.887 C 77.174 35.978,76.685 36.203,76.574 36.388 C 76.462 36.572,76.165 36.799,75.914 36.891 C 75.663 36.984,75.457 37.298,75.457 37.590 C 75.457 38.024,75.288 38.120,74.519 38.120 C 73.800 38.120,73.548 38.242,73.444 38.642 C 73.368 38.931,73.088 39.164,72.816 39.164 C 72.498 39.164,72.324 39.349,72.324 39.687 C 72.324 40.060,72.150 40.209,71.711 40.209 C 71.375 40.209,70.887 40.444,70.627 40.731 C 70.367 41.018,69.945 41.253,69.690 41.253 C 69.435 41.253,69.151 41.488,69.060 41.775 C 68.969 42.063,68.667 42.298,68.390 42.298 C 68.059 42.298,67.885 42.478,67.885 42.820 C 67.885 43.168,67.711 43.342,67.363 43.342 C 67.076 43.342,66.606 43.577,66.319 43.864 C 66.031 44.151,65.609 44.386,65.380 44.386 C 65.151 44.386,64.903 44.621,64.828 44.909 C 64.752 45.198,64.471 45.431,64.199 45.431 C 63.882 45.431,63.708 45.616,63.708 45.953 C 63.708 46.291,63.534 46.475,63.213 46.475 C 62.941 46.475,62.649 46.657,62.564 46.879 C 62.479 47.101,61.997 47.455,61.492 47.665 C 60.987 47.876,60.574 48.223,60.574 48.437 C 60.574 48.650,60.347 48.825,60.070 48.825 C 59.792 48.825,59.491 49.060,59.399 49.347 C 59.308 49.634,59.007 49.869,58.729 49.869 C 58.399 49.869,58.225 50.050,58.225 50.392 C 58.225 50.740,58.050 50.914,57.702 50.914 C 57.354 50.914,57.180 51.088,57.180 51.436 C 57.180 51.774,57.006 51.958,56.686 51.958 C 56.414 51.958,56.122 52.140,56.037 52.362 C 55.951 52.584,55.528 52.890,55.095 53.041 C 54.662 53.191,54.308 53.424,54.308 53.557 C 54.308 53.690,54.014 53.911,53.655 54.047 C 53.296 54.183,53.003 54.474,53.003 54.693 C 53.003 54.912,52.815 55.091,52.587 55.091 C 52.358 55.091,52.109 55.326,52.034 55.614 C 51.958 55.903,51.678 56.136,51.406 56.136 C 51.088 56.136,50.914 56.321,50.914 56.658 C 50.914 57.006,50.740 57.180,50.392 57.180 C 50.044 57.180,49.869 57.354,49.869 57.702 C 49.869 57.990,49.696 58.225,49.484 58.225 C 49.272 58.225,48.906 58.518,48.671 58.877 C 48.435 59.236,48.080 59.530,47.881 59.530 C 47.682 59.530,47.520 59.751,47.520 60.022 C 47.520 60.294,47.286 60.574,46.997 60.650 C 46.710 60.725,46.475 60.960,46.475 61.172 C 46.475 61.384,46.240 61.619,45.953 61.694 C 45.666 61.770,45.431 62.018,45.431 62.247 C 45.431 62.489,45.212 62.663,44.909 62.663 C 44.560 62.663,44.386 62.837,44.386 63.185 C 44.386 63.534,44.212 63.708,43.864 63.708 C 43.516 63.708,43.342 63.882,43.342 64.230 C 43.342 64.578,43.168 64.752,42.820 64.752 C 42.482 64.752,42.298 64.926,42.298 65.244 C 42.298 65.516,42.064 65.796,41.775 65.872 C 41.488 65.947,41.253 66.182,41.253 66.394 C 41.253 66.606,41.018 66.841,40.731 66.916 C 40.444 66.991,40.209 67.240,40.209 67.469 C 40.209 67.711,39.990 67.885,39.687 67.885 C 39.339 67.885,39.164 68.059,39.164 68.407 C 39.164 68.701,38.990 68.930,38.767 68.930 C 38.549 68.930,38.241 69.213,38.083 69.560 C 37.925 69.907,37.575 70.248,37.305 70.319 C 37.035 70.389,36.815 70.621,36.815 70.833 C 36.815 71.045,36.580 71.280,36.292 71.355 C 36.005 71.430,35.770 71.679,35.770 71.908 C 35.770 72.137,35.590 72.324,35.370 72.324 C 35.150 72.324,34.894 72.529,34.800 72.781 C 34.706 73.032,34.416 73.391,34.156 73.579 C 33.895 73.766,33.681 74.031,33.681 74.166 C 33.681 74.302,33.446 74.648,33.159 74.935 C 32.872 75.222,32.637 75.692,32.637 75.979 C 32.637 76.327,32.463 76.501,32.115 76.501 C 31.767 76.501,31.593 76.675,31.593 77.023 C 31.593 77.372,31.419 77.546,31.070 77.546 C 30.722 77.546,30.548 77.720,30.548 78.068 C 30.548 78.362,30.374 78.590,30.150 78.590 C 29.931 78.590,29.640 78.884,29.504 79.243 C 29.367 79.602,29.077 79.896,28.858 79.896 C 28.639 79.896,28.460 80.082,28.460 80.311 C 28.460 80.539,28.214 80.925,27.913 81.168 C 27.613 81.411,27.348 81.929,27.326 82.319 C 27.294 82.868,27.152 83.028,26.697 83.029 C 26.374 83.029,26.124 83.117,26.141 83.225 C 26.224 83.755,26.063 84.024,25.587 84.149 C 25.300 84.224,25.065 84.473,25.065 84.701 C 25.065 84.930,24.942 85.117,24.791 85.117 C 24.640 85.117,24.342 85.534,24.130 86.043 C 23.917 86.552,23.571 87.034,23.360 87.115 C 23.149 87.196,22.977 87.471,22.977 87.726 C 22.977 87.981,22.742 88.251,22.454 88.326 C 22.154 88.405,21.932 88.682,21.932 88.979 C 21.932 89.276,21.710 89.553,21.410 89.632 C 21.014 89.735,20.888 89.988,20.888 90.678 C 20.888 91.383,20.785 91.579,20.431 91.551 C 20.142 91.528,19.943 91.730,19.891 92.102 C 19.837 92.479,19.627 92.689,19.303 92.689 C 18.926 92.689,18.799 92.872,18.799 93.415 C 18.799 93.841,18.583 94.296,18.277 94.517 C 17.990 94.724,17.755 95.102,17.755 95.358 C 17.755 95.648,17.559 95.822,17.232 95.822 C 16.889 95.822,16.710 95.997,16.710 96.331 C 16.710 96.611,16.419 97.155,16.062 97.539 C 15.706 97.923,15.478 98.342,15.557 98.468 C 15.635 98.595,15.486 98.777,15.225 98.873 C 14.612 99.100,14.369 99.470,14.364 100.187 C 14.362 100.505,14.125 100.891,13.838 101.044 C 13.551 101.198,13.316 101.541,13.316 101.806 C 13.316 102.072,13.081 102.350,12.794 102.426 C 12.394 102.530,12.272 102.782,12.272 103.500 C 12.272 104.167,12.156 104.439,11.873 104.439 C 11.654 104.439,11.364 104.732,11.227 105.091 C 11.091 105.450,10.864 105.744,10.723 105.744 C 10.583 105.744,10.392 106.145,10.301 106.634 C 10.194 107.201,9.953 107.571,9.636 107.654 C 9.263 107.751,9.138 108.019,9.138 108.722 C 9.138 109.487,9.042 109.661,8.616 109.661 C 8.210 109.661,8.094 109.835,8.094 110.442 C 8.094 110.940,7.905 111.341,7.572 111.549 C 7.285 111.728,7.050 112.140,7.050 112.465 C 7.050 112.795,6.889 113.055,6.686 113.055 C 6.270 113.055,6.005 113.609,6.005 114.482 C 6.005 114.863,5.814 115.133,5.483 115.219 C 5.021 115.340,4.796 115.993,4.937 116.798 C 4.959 116.918,4.737 117.079,4.446 117.155 C 4.155 117.231,3.902 117.456,3.884 117.654 C 3.866 117.853,3.822 118.133,3.786 118.277 C 3.750 118.420,3.706 118.714,3.688 118.930 C 3.670 119.145,3.492 119.321,3.292 119.321 C 2.881 119.321,2.611 119.874,2.611 120.716 C 2.611 121.028,2.376 121.431,2.089 121.610 C 1.734 121.832,1.567 122.219,1.567 122.818 C 1.567 123.479,1.436 123.733,1.044 123.835 C 0.644 123.940,0.522 124.192,0.522 124.910 C 0.522 125.426,0.405 125.849,0.261 125.849 C 0.096 125.849,0.000 127.676,0.000 130.809 C 0.000 133.943,0.096 135.770,0.261 135.770 C 0.405 135.770,0.522 136.172,0.522 136.663 C 0.522 137.813,0.747 138.381,1.203 138.381 C 1.444 138.381,1.567 138.688,1.567 139.293 C 1.567 139.922,1.729 140.306,2.089 140.531 C 2.376 140.710,2.611 141.113,2.611 141.425 C 2.611 142.252,2.879 142.820,3.269 142.820 C 3.463 142.820,3.685 143.269,3.786 143.864 C 3.891 144.487,4.106 144.909,4.319 144.909 C 4.523 144.909,4.752 145.316,4.854 145.856 C 4.968 146.466,5.205 146.849,5.518 146.931 C 5.851 147.018,6.005 147.296,6.005 147.809 C 6.005 148.277,6.202 148.682,6.527 148.886 C 6.815 149.065,7.050 149.477,7.050 149.802 C 7.050 150.218,7.204 150.392,7.572 150.392 C 7.997 150.392,8.094 150.566,8.094 151.330 C 8.094 152.049,8.216 152.300,8.616 152.405 C 8.986 152.501,9.138 152.761,9.138 153.292 C 9.138 153.760,9.335 154.165,9.661 154.369 C 9.948 154.548,10.183 154.873,10.183 155.091 C 10.183 155.310,10.418 155.635,10.705 155.814 C 11.038 156.022,11.227 156.423,11.227 156.921 C 11.227 157.528,11.344 157.702,11.749 157.702 C 12.132 157.702,12.272 157.876,12.272 158.355 C 12.272 158.714,12.507 159.243,12.794 159.530 C 13.081 159.817,13.316 160.239,13.316 160.468 C 13.316 160.697,13.540 160.943,13.814 161.015 C 14.131 161.097,14.372 161.468,14.478 162.034 C 14.570 162.524,14.760 162.924,14.900 162.924 C 15.040 162.924,15.289 163.218,15.452 163.577 C 15.616 163.936,15.966 164.230,16.230 164.230 C 16.607 164.230,16.710 164.431,16.710 165.168 C 16.710 165.887,16.832 166.138,17.232 166.243 C 17.521 166.318,17.755 166.599,17.755 166.871 C 17.755 167.189,17.939 167.363,18.277 167.363 C 18.702 167.363,18.799 167.537,18.799 168.301 C 18.799 169.020,18.921 169.271,19.321 169.376 C 19.621 169.455,19.843 169.732,19.843 170.029 C 19.843 170.325,20.065 170.603,20.366 170.682 C 20.653 170.757,20.888 171.030,20.888 171.288 C 20.888 172.038,21.175 172.585,21.568 172.585 C 21.768 172.585,21.932 172.831,21.932 173.131 C 21.932 173.459,22.142 173.733,22.454 173.815 C 22.742 173.890,22.977 174.160,22.977 174.415 C 22.977 174.670,23.149 174.945,23.360 175.026 C 23.571 175.107,23.917 175.589,24.130 176.098 C 24.342 176.607,24.626 177.023,24.760 177.023 C 24.895 177.023,25.066 177.258,25.141 177.546 C 25.216 177.833,25.451 178.068,25.663 178.068 C 25.875 178.068,26.110 178.303,26.185 178.590 C 26.260 178.877,26.504 179.112,26.726 179.112 C 26.984 179.112,27.195 179.455,27.308 180.060 C 27.422 180.669,27.660 181.053,27.973 181.135 C 28.240 181.205,28.460 181.475,28.460 181.736 C 28.460 181.997,28.682 182.281,28.954 182.367 C 29.225 182.453,29.508 182.755,29.582 183.037 C 29.656 183.320,29.903 183.551,30.132 183.551 C 30.374 183.551,30.548 183.769,30.548 184.073 C 30.548 184.421,30.722 184.595,31.070 184.595 C 31.419 184.595,31.593 184.769,31.593 185.117 C 31.593 185.466,31.767 185.640,32.115 185.640 C 32.402 185.640,32.637 185.811,32.637 186.019 C 32.637 186.363,32.876 186.679,34.422 188.381 C 34.683 188.668,34.972 189.109,35.064 189.360 C 35.156 189.612,35.412 189.817,35.631 189.817 C 35.851 189.817,36.031 189.989,36.031 190.200 C 36.031 190.410,36.266 190.708,36.554 190.862 C 36.841 191.015,37.076 191.299,37.076 191.493 C 37.076 191.687,37.311 191.907,37.598 191.982 C 37.885 192.057,38.120 192.298,38.120 192.517 C 38.120 192.736,38.355 192.990,38.642 193.081 C 38.930 193.172,39.164 193.426,39.164 193.645 C 39.164 193.864,39.399 194.105,39.687 194.180 C 39.974 194.255,40.209 194.490,40.209 194.702 C 40.209 194.915,40.444 195.150,40.731 195.225 C 41.018 195.300,41.253 195.535,41.253 195.747 C 41.253 195.959,41.488 196.194,41.775 196.269 C 42.063 196.344,42.298 196.579,42.298 196.791 C 42.298 197.003,42.533 197.238,42.820 197.313 C 43.107 197.388,43.342 197.623,43.342 197.836 C 43.342 198.048,43.577 198.283,43.864 198.358 C 44.151 198.433,44.386 198.668,44.386 198.880 C 44.386 199.092,44.621 199.327,44.909 199.402 C 45.196 199.477,45.431 199.712,45.431 199.924 C 45.431 200.136,45.666 200.371,45.953 200.447 C 46.240 200.522,46.475 200.749,46.475 200.951 C 46.475 201.153,46.769 201.430,47.128 201.567 C 47.487 201.703,47.781 201.980,47.781 202.182 C 47.781 202.385,48.016 202.612,48.303 202.687 C 48.590 202.762,48.825 202.997,48.825 203.209 C 48.825 203.421,49.060 203.656,49.347 203.731 C 49.634 203.806,49.869 204.055,49.869 204.284 C 49.869 204.512,50.042 204.700,50.252 204.700 C 50.462 204.700,50.760 204.935,50.914 205.222 C 51.068 205.509,51.323 205.744,51.481 205.744 C 51.639 205.744,52.040 206.038,52.373 206.397 C 52.705 206.756,53.218 207.050,53.512 207.050 C 53.873 207.050,54.047 207.220,54.047 207.572 C 54.047 207.920,54.221 208.094,54.569 208.094 C 54.917 208.094,55.091 208.268,55.091 208.616 C 55.091 208.964,55.265 209.138,55.614 209.138 C 55.962 209.138,56.136 209.312,56.136 209.661 C 56.136 210.009,56.310 210.183,56.658 210.183 C 57.006 210.183,57.180 210.357,57.180 210.705 C 57.180 211.053,57.354 211.227,57.702 211.227 C 57.996 211.227,58.225 211.401,58.225 211.624 C 58.225 211.843,58.518 212.155,58.877 212.319 C 59.236 212.483,59.530 212.774,59.530 212.966 C 59.530 213.159,59.702 213.316,59.912 213.316 C 60.123 213.316,60.418 213.546,60.568 213.827 C 60.721 214.112,61.245 214.413,61.753 214.509 C 62.411 214.632,62.663 214.816,62.663 215.173 C 62.663 215.492,62.848 215.666,63.185 215.666 C 63.534 215.666,63.708 215.840,63.708 216.188 C 63.708 216.525,63.882 216.710,64.199 216.710 C 64.471 216.710,64.752 216.943,64.828 217.232 C 64.920 217.585,65.184 217.755,65.639 217.755 C 66.031 217.755,66.451 217.973,66.640 218.277 C 66.820 218.564,67.173 218.799,67.426 218.799 C 67.711 218.799,67.885 218.997,67.885 219.321 C 67.885 219.677,68.059 219.843,68.432 219.843 C 68.759 219.843,69.033 220.053,69.115 220.366 C 69.216 220.753,69.471 220.888,70.104 220.888 C 70.738 220.888,70.993 221.022,71.094 221.410 C 71.176 221.722,71.450 221.932,71.777 221.932 C 72.150 221.932,72.324 222.098,72.324 222.454 C 72.324 222.742,72.491 222.977,72.695 222.977 C 72.900 222.977,73.416 223.270,73.843 223.629 C 74.269 223.988,74.793 224.282,75.007 224.282 C 75.221 224.282,75.457 224.517,75.533 224.804 C 75.610 225.100,75.889 225.326,76.175 225.326 C 76.454 225.326,76.894 225.561,77.154 225.849 C 77.414 226.136,77.830 226.371,78.078 226.371 C 78.326 226.371,78.591 226.606,78.666 226.893 C 78.766 227.277,79.022 227.415,79.634 227.415 C 80.247 227.415,80.503 227.553,80.603 227.937 C 80.692 228.275,80.959 228.460,81.362 228.460 C 81.810 228.460,81.984 228.606,81.984 228.982 C 81.984 229.417,82.158 229.504,83.029 229.504 C 83.899 229.504,84.073 229.591,84.073 230.026 C 84.073 230.350,84.247 230.548,84.532 230.548 C 84.785 230.548,85.139 230.783,85.318 231.070 C 85.526 231.404,85.927 231.593,86.425 231.593 C 87.032 231.593,87.206 231.709,87.206 232.115 C 87.206 232.550,87.380 232.637,88.251 232.637 C 89.121 232.637,89.295 232.724,89.295 233.159 C 89.295 233.594,89.469 233.681,90.339 233.681 C 91.198 233.681,91.384 233.771,91.384 234.186 C 91.384 234.481,91.628 234.767,91.971 234.875 C 92.294 234.976,92.839 235.278,93.181 235.545 C 93.524 235.813,94.023 236.031,94.291 236.031 C 94.559 236.031,94.778 236.197,94.778 236.400 C 94.778 236.627,95.180 236.837,95.822 236.945 C 96.417 237.046,96.867 237.268,96.867 237.462 C 96.867 237.858,97.436 238.120,98.294 238.120 C 98.675 238.120,98.945 238.311,99.031 238.642 C 99.135 239.040,99.387 239.164,100.089 239.164 C 100.780 239.164,101.050 239.295,101.175 239.687 C 101.303 240.089,101.570 240.209,102.337 240.209 C 103.114 240.209,103.363 240.324,103.470 240.731 C 103.569 241.111,103.826 241.253,104.414 241.253 C 104.874 241.253,105.447 241.478,105.744 241.775 C 106.112 242.143,106.614 242.298,107.441 242.298 C 108.442 242.298,108.616 242.375,108.616 242.820 C 108.616 243.255,108.790 243.342,109.661 243.342 C 110.531 243.342,110.705 243.429,110.705 243.864 C 110.705 244.298,110.879 244.386,111.732 244.386 C 112.508 244.386,112.797 244.506,112.914 244.878 C 113.073 245.378,114.046 245.692,115.437 245.692 C 116.014 245.692,116.188 245.813,116.188 246.214 C 116.188 246.649,116.362 246.736,117.232 246.736 C 117.948 246.736,118.277 246.850,118.277 247.097 C 118.277 247.520,119.066 247.772,120.400 247.777 C 121.128 247.780,121.381 247.902,121.486 248.303 C 121.599 248.738,121.842 248.825,122.943 248.825 C 123.996 248.825,124.320 248.931,124.543 249.347 C 124.750 249.735,125.090 249.869,125.858 249.869 C 126.569 249.869,126.893 249.983,126.893 250.233 C 126.893 250.703,127.466 250.914,128.742 250.914 C 129.417 250.914,129.943 251.092,130.287 251.436 C 130.655 251.804,131.158 251.958,131.984 251.958 C 132.811 251.958,133.314 252.113,133.681 252.480 C 134.086 252.885,134.552 253.003,135.753 253.003 C 137.072 253.003,137.326 253.080,137.467 253.525 C 137.608 253.968,137.862 254.047,139.152 254.047 C 140.451 254.047,140.690 254.123,140.807 254.569 C 140.928 255.033,141.163 255.091,142.895 255.091 C 144.575 255.091,144.865 255.159,144.974 255.574 C 145.117 256.123,146.151 256.397,148.074 256.397 C 148.980 256.397,149.347 256.500,149.347 256.756 C 149.347 257.210,150.492 257.441,152.744 257.441 C 154.289 257.441,154.525 257.506,154.645 257.963 C 154.770 258.440,155.001 258.486,157.311 258.486 C 159.620 258.486,159.852 258.531,159.977 259.008 C 160.102 259.489,160.333 259.530,162.914 259.530 C 165.384 259.530,165.771 259.592,166.188 260.052 C 166.630 260.541,166.992 260.574,171.842 260.574 C 175.122 260.574,177.023 260.670,177.023 260.836 C 177.023 261.008,184.856 261.097,200.000 261.097 C 213.954 261.097,222.977 261.001,222.977 260.854 C 222.977 260.720,224.727 260.575,226.915 260.528 C 230.303 260.456,230.899 260.380,231.186 259.987 C 231.465 259.605,231.945 259.530,234.118 259.530 C 236.355 259.530,236.794 259.457,237.277 259.008 C 237.751 258.565,238.198 258.486,240.198 258.486 C 242.211 258.486,242.636 258.409,243.081 257.963 C 243.505 257.539,243.951 257.441,245.455 257.441 C 247.088 257.441,247.324 257.379,247.444 256.919 C 247.565 256.457,247.800 256.397,249.491 256.397 C 251.626 256.397,252.742 256.085,252.742 255.489 C 252.742 255.175,253.085 255.091,254.376 255.091 C 255.727 255.091,256.067 255.001,256.336 254.569 C 256.612 254.128,256.945 254.047,258.488 254.047 C 260.139 254.047,260.313 253.997,260.313 253.525 C 260.313 253.060,260.487 253.003,261.904 253.003 C 263.276 253.003,263.514 252.931,263.632 252.480 C 263.749 252.033,263.988 251.958,265.305 251.958 C 266.493 251.958,266.959 251.840,267.363 251.436 C 267.730 251.069,268.233 250.914,269.060 250.914 C 269.887 250.914,270.390 250.759,270.757 250.392 C 271.086 250.063,271.628 249.869,272.218 249.869 C 272.936 249.869,273.188 249.747,273.292 249.347 C 273.408 248.905,273.649 248.825,274.859 248.825 C 276.070 248.825,276.310 248.745,276.426 248.303 C 276.530 247.902,276.784 247.780,277.511 247.777 C 278.846 247.772,279.634 247.520,279.634 247.097 C 279.634 246.857,279.948 246.736,280.573 246.736 C 281.291 246.736,281.543 246.614,281.648 246.214 C 281.750 245.824,282.004 245.692,282.651 245.692 C 283.826 245.692,284.856 245.268,284.856 244.785 C 284.856 244.487,285.153 244.386,286.031 244.386 C 287.032 244.386,287.206 244.309,287.206 243.864 C 287.206 243.429,287.380 243.342,288.251 243.342 C 289.121 243.342,289.295 243.255,289.295 242.820 C 289.295 242.385,289.469 242.298,290.339 242.298 C 291.186 242.298,291.384 242.205,291.384 241.809 C 291.384 241.411,291.634 241.296,292.725 241.191 C 293.592 241.108,294.150 240.911,294.304 240.635 C 294.435 240.401,294.821 240.209,295.161 240.209 C 296.050 240.209,296.606 239.947,296.606 239.528 C 296.606 239.314,296.875 239.164,297.258 239.164 C 297.617 239.164,298.146 238.930,298.433 238.642 C 298.721 238.355,299.172 238.120,299.437 238.120 C 299.702 238.120,300.132 237.885,300.392 237.598 C 300.652 237.311,301.111 237.076,301.414 237.076 C 301.716 237.076,302.110 236.841,302.289 236.554 C 302.497 236.220,302.898 236.031,303.396 236.031 C 303.995 236.031,304.178 235.913,304.178 235.525 C 304.178 235.128,304.390 235.001,305.157 234.937 C 305.876 234.878,306.204 234.701,306.394 234.269 C 306.587 233.828,306.869 233.681,307.528 233.681 C 308.184 233.681,308.438 233.551,308.541 233.159 C 308.629 232.822,308.897 232.637,309.297 232.637 C 309.638 232.637,310.064 232.402,310.243 232.115 C 310.423 231.828,310.835 231.593,311.159 231.593 C 311.575 231.593,311.749 231.439,311.749 231.070 C 311.749 230.635,311.923 230.548,312.794 230.548 C 313.664 230.548,313.838 230.461,313.838 230.026 C 313.838 229.702,314.012 229.504,314.298 229.504 C 314.550 229.504,314.904 229.269,315.083 228.982 C 315.288 228.653,315.692 228.460,316.173 228.460 C 316.693 228.460,316.986 228.302,317.093 227.965 C 317.190 227.658,317.594 227.405,318.155 227.300 C 318.695 227.199,319.060 226.977,319.060 226.751 C 319.060 226.539,319.302 226.371,319.607 226.371 C 319.925 226.371,320.208 226.163,320.283 225.873 C 320.366 225.556,320.737 225.315,321.303 225.209 C 321.793 225.117,322.193 224.927,322.193 224.786 C 322.193 224.645,322.487 224.418,322.846 224.282 C 323.205 224.145,323.499 223.855,323.499 223.636 C 323.499 223.412,323.727 223.238,324.021 223.238 C 324.308 223.238,324.543 223.112,324.543 222.958 C 324.543 222.460,325.272 221.932,325.960 221.932 C 326.458 221.932,326.632 221.797,326.632 221.410 C 326.632 221.027,326.806 220.888,327.285 220.888 C 327.763 220.888,327.937 220.748,327.937 220.366 C 327.937 219.956,328.111 219.843,328.745 219.843 C 329.333 219.843,329.590 219.701,329.689 219.321 C 329.768 219.021,330.046 218.799,330.342 218.799 C 330.639 218.799,330.916 218.577,330.995 218.277 C 331.070 217.988,331.351 217.755,331.623 217.755 C 331.931 217.755,332.115 217.570,332.115 217.261 C 332.115 216.905,332.367 216.721,333.029 216.597 C 333.576 216.494,333.943 216.273,333.943 216.046 C 333.943 215.834,334.185 215.666,334.489 215.666 C 334.816 215.666,335.091 215.456,335.172 215.144 C 335.248 214.855,335.529 214.621,335.801 214.621 C 336.118 214.621,336.292 214.437,336.292 214.099 C 336.292 213.751,336.466 213.577,336.815 213.577 C 337.163 213.577,337.337 213.403,337.337 213.055 C 337.337 212.758,337.511 212.533,337.740 212.533 C 337.962 212.533,338.460 212.239,338.847 211.880 C 339.234 211.521,339.758 211.227,340.010 211.227 C 340.296 211.227,340.470 211.029,340.470 210.705 C 340.470 210.349,340.644 210.183,341.017 210.183 C 341.344 210.183,341.618 209.973,341.700 209.661 C 341.775 209.372,342.056 209.138,342.328 209.138 C 342.646 209.138,342.820 208.954,342.820 208.616 C 342.820 208.268,342.994 208.094,343.342 208.094 C 343.690 208.094,343.864 207.920,343.864 207.572 C 343.864 207.224,344.038 207.050,344.386 207.050 C 344.735 207.050,344.909 206.876,344.909 206.527 C 344.909 206.179,345.083 206.005,345.431 206.005 C 345.779 206.005,345.953 205.831,345.953 205.483 C 345.953 205.148,346.127 204.961,346.440 204.961 C 346.707 204.961,347.207 204.687,347.549 204.353 C 347.892 204.018,348.378 203.669,348.629 203.577 C 348.881 203.486,349.086 203.231,349.086 203.011 C 349.086 202.785,349.313 202.611,349.608 202.611 C 349.912 202.611,350.131 202.437,350.131 202.195 C 350.131 201.966,350.366 201.717,350.653 201.642 C 350.942 201.567,351.175 201.286,351.175 201.014 C 351.175 200.702,351.359 200.522,351.680 200.522 C 351.957 200.522,352.255 200.300,352.341 200.028 C 352.427 199.756,352.729 199.474,353.011 199.400 C 353.294 199.326,353.525 199.092,353.525 198.880 C 353.525 198.668,353.760 198.433,354.047 198.358 C 354.334 198.283,354.569 198.048,354.569 197.836 C 354.569 197.623,354.804 197.388,355.091 197.313 C 355.379 197.238,355.614 197.003,355.614 196.791 C 355.614 196.579,355.849 196.344,356.136 196.269 C 356.423 196.194,356.658 195.959,356.658 195.747 C 356.658 195.535,356.893 195.300,357.180 195.225 C 357.467 195.150,357.702 194.909,357.702 194.690 C 357.702 194.470,357.937 194.216,358.225 194.125 C 358.512 194.034,358.747 193.733,358.747 193.455 C 358.747 193.176,358.925 192.950,359.147 192.950 C 359.366 192.950,359.620 192.745,359.711 192.493 C 359.801 192.242,360.091 191.826,360.355 191.569 C 360.619 191.313,360.836 190.813,360.836 190.460 C 360.836 189.948,360.969 189.817,361.488 189.817 C 361.967 189.817,362.141 189.678,362.141 189.295 C 362.141 188.947,362.315 188.773,362.663 188.773 C 363.011 188.773,363.185 188.599,363.185 188.251 C 363.185 187.903,363.359 187.728,363.708 187.728 C 364.056 187.728,364.230 187.554,364.230 187.206 C 364.230 186.858,364.404 186.684,364.752 186.684 C 365.100 186.684,365.274 186.510,365.274 186.162 C 365.274 185.814,365.448 185.640,365.796 185.640 C 366.144 185.640,366.319 185.466,366.319 185.117 C 366.319 184.824,366.493 184.595,366.717 184.595 C 366.936 184.595,367.220 184.318,367.349 183.978 C 367.478 183.639,367.769 183.290,367.996 183.203 C 368.245 183.107,368.407 182.733,368.407 182.254 C 368.407 181.636,368.522 181.462,368.930 181.462 C 369.267 181.462,369.452 181.288,369.452 180.970 C 369.452 180.698,369.685 180.418,369.974 180.342 C 370.286 180.260,370.496 179.986,370.496 179.659 C 370.496 179.286,370.662 179.112,371.018 179.112 C 371.366 179.112,371.540 178.938,371.540 178.590 C 371.540 178.250,371.715 178.068,372.040 178.068 C 372.419 178.068,372.581 177.816,372.715 177.023 C 372.849 176.231,373.012 175.979,373.391 175.979 C 373.716 175.979,373.890 175.797,373.890 175.457 C 373.890 175.153,374.064 174.935,374.306 174.935 C 374.535 174.935,374.781 174.711,374.853 174.437 C 374.924 174.163,375.207 173.880,375.481 173.808 C 375.855 173.711,375.979 173.443,375.979 172.740 C 375.979 171.976,376.076 171.802,376.501 171.802 C 376.839 171.802,377.023 171.628,377.023 171.310 C 377.023 171.038,377.257 170.757,377.546 170.682 C 377.858 170.600,378.068 170.325,378.068 169.998 C 378.068 169.626,378.234 169.452,378.590 169.452 C 379.025 169.452,379.112 169.278,379.112 168.407 C 379.112 167.537,379.199 167.363,379.634 167.363 C 379.983 167.363,380.157 167.189,380.157 166.841 C 380.157 166.493,380.331 166.319,380.679 166.319 C 381.114 166.319,381.201 166.144,381.201 165.274 C 381.201 164.404,381.288 164.230,381.723 164.230 C 382.071 164.230,382.245 164.056,382.245 163.708 C 382.245 163.369,382.419 163.185,382.740 163.185 C 383.282 163.185,383.551 162.702,383.551 161.728 C 383.551 161.335,383.702 161.097,383.951 161.097 C 384.171 161.097,384.427 160.891,384.521 160.640 C 384.615 160.388,384.905 160.029,385.166 159.842 C 385.431 159.650,385.640 159.176,385.640 158.762 C 385.640 158.244,385.795 157.984,386.162 157.888 C 386.474 157.806,386.684 157.532,386.684 157.205 C 386.684 156.904,386.848 156.658,387.048 156.658 C 387.469 156.658,387.728 156.102,387.728 155.201 C 387.728 154.743,387.872 154.569,388.251 154.569 C 388.686 154.569,388.773 154.395,388.773 153.525 C 388.773 152.654,388.860 152.480,389.295 152.480 C 389.669 152.480,389.817 152.306,389.817 151.868 C 389.817 151.531,390.052 151.043,390.339 150.783 C 390.627 150.523,390.862 150.083,390.862 149.805 C 390.862 149.518,391.088 149.239,391.384 149.162 C 391.780 149.058,391.906 148.806,391.906 148.117 C 391.906 147.429,392.032 147.177,392.428 147.073 C 392.837 146.966,392.950 146.717,392.950 145.923 C 392.950 145.083,393.040 144.909,393.473 144.909 C 393.908 144.909,393.995 144.735,393.995 143.864 C 393.995 143.014,394.086 142.820,394.489 142.820 C 395.031 142.820,395.300 142.336,395.300 141.362 C 395.300 140.997,395.453 140.731,395.664 140.731 C 396.084 140.731,396.345 140.176,396.345 139.283 C 396.345 138.928,396.569 138.541,396.867 138.381 C 397.291 138.154,397.389 137.835,397.389 136.675 C 397.389 135.422,397.453 135.248,397.911 135.248 C 398.414 135.248,398.433 135.074,398.433 130.654 C 398.433 126.280,398.408 126.054,397.911 125.924 C 397.480 125.811,397.389 125.568,397.389 124.523 C 397.389 123.629,397.246 123.121,396.901 122.791 C 396.633 122.534,396.334 121.883,396.237 121.345 C 396.134 120.777,395.910 120.366,395.703 120.366 C 395.490 120.366,395.275 119.944,395.170 119.321 C 395.036 118.528,394.873 118.277,394.494 118.277 C 394.095 118.277,393.995 118.088,393.995 117.338 C 393.995 116.620,393.873 116.368,393.473 116.264 C 393.135 116.175,392.950 115.908,392.950 115.505 C 392.950 115.163,392.715 114.648,392.428 114.360 C 392.141 114.073,391.906 113.651,391.906 113.422 C 391.906 113.193,391.671 112.944,391.384 112.869 C 390.988 112.766,390.862 112.513,390.862 111.825 C 390.862 111.137,390.735 110.884,390.339 110.781 C 389.944 110.677,389.817 110.424,389.817 109.736 C 389.817 109.048,389.691 108.795,389.295 108.692 C 389.008 108.617,388.773 108.356,388.773 108.113 C 388.773 107.869,388.538 107.418,388.251 107.110 C 387.963 106.801,387.728 106.309,387.728 106.016 C 387.728 105.657,387.558 105.483,387.206 105.483 C 386.828 105.483,386.684 105.309,386.684 104.852 C 386.684 103.950,386.424 103.394,386.003 103.394 C 385.803 103.394,385.640 103.167,385.640 102.890 C 385.640 102.612,385.417 102.314,385.145 102.228 C 384.836 102.130,384.585 101.725,384.478 101.152 C 384.383 100.647,384.136 100.169,383.928 100.089 C 383.721 100.009,383.551 99.794,383.551 99.610 C 383.551 99.427,383.257 99.084,382.898 98.849 C 382.444 98.551,382.245 98.185,382.245 97.644 C 382.245 97.041,382.128 96.867,381.723 96.867 C 381.375 96.867,381.201 96.693,381.201 96.345 C 381.201 95.997,381.027 95.822,380.679 95.822 C 380.244 95.822,380.157 95.648,380.157 94.778 C 380.157 93.908,380.070 93.734,379.634 93.734 C 379.286 93.734,379.112 93.560,379.112 93.211 C 379.112 92.863,378.938 92.689,378.590 92.689 C 378.212 92.689,378.068 92.515,378.068 92.058 C 378.068 91.157,377.808 90.601,377.387 90.601 C 377.187 90.601,377.023 90.355,377.023 90.054 C 377.023 89.727,376.814 89.452,376.501 89.371 C 376.212 89.295,375.979 89.015,375.979 88.742 C 375.979 88.434,375.795 88.251,375.486 88.251 C 375.128 88.251,374.945 87.997,374.819 87.323 C 374.723 86.813,374.480 86.332,374.278 86.255 C 374.076 86.177,373.839 85.890,373.752 85.616 C 373.665 85.342,373.439 85.117,373.250 85.117 C 373.061 85.117,372.845 84.883,372.770 84.595 C 372.689 84.283,372.414 84.073,372.087 84.073 C 371.715 84.073,371.540 83.907,371.540 83.551 C 371.540 83.264,371.305 82.794,371.018 82.507 C 370.731 82.219,370.496 81.749,370.496 81.462 C 370.496 81.114,370.322 80.940,369.974 80.940 C 369.632 80.940,369.452 80.766,369.452 80.435 C 369.452 80.158,369.217 79.856,368.930 79.765 C 368.642 79.674,368.407 79.420,368.407 79.201 C 368.407 78.982,368.172 78.741,367.885 78.666 C 367.596 78.590,367.363 78.310,367.363 78.037 C 367.363 77.720,367.178 77.546,366.841 77.546 C 366.537 77.546,366.319 77.372,366.319 77.130 C 366.319 76.728,365.778 75.920,364.556 74.498 C 364.233 74.122,363.969 73.714,363.969 73.591 C 363.969 73.468,363.800 73.368,363.595 73.368 C 363.389 73.368,363.146 73.133,363.055 72.846 C 362.964 72.559,362.729 72.324,362.533 72.324 C 362.337 72.324,362.102 72.089,362.010 71.802 C 361.919 71.514,361.618 71.279,361.340 71.279 C 361.010 71.279,360.836 71.099,360.836 70.757 C 360.836 70.463,360.661 70.235,360.437 70.235 C 360.218 70.235,359.928 69.941,359.791 69.582 C 359.655 69.223,359.364 68.930,359.145 68.930 C 358.921 68.930,358.747 68.701,358.747 68.407 C 358.747 68.059,358.573 67.885,358.225 67.885 C 357.876 67.885,357.702 67.711,357.702 67.363 C 357.702 67.015,357.528 66.841,357.180 66.841 C 356.832 66.841,356.658 66.667,356.658 66.319 C 356.658 65.970,356.484 65.796,356.136 65.796 C 355.788 65.796,355.614 65.622,355.614 65.274 C 355.614 64.926,355.440 64.752,355.091 64.752 C 354.743 64.752,354.569 64.578,354.569 64.230 C 354.569 63.882,354.395 63.708,354.047 63.708 C 353.699 63.708,353.525 63.534,353.525 63.185 C 353.525 62.837,353.351 62.663,353.003 62.663 C 352.654 62.663,352.480 62.489,352.480 62.141 C 352.480 61.793,352.306 61.619,351.958 61.619 C 351.654 61.619,351.436 61.445,351.436 61.203 C 351.436 60.974,351.201 60.725,350.914 60.650 C 350.627 60.575,350.392 60.348,350.392 60.147 C 350.392 59.945,350.098 59.646,349.739 59.483 C 349.380 59.319,349.086 59.017,349.086 58.811 C 349.086 58.605,348.851 58.375,348.564 58.300 C 348.277 58.225,348.042 57.990,348.042 57.778 C 348.042 57.566,347.807 57.331,347.520 57.256 C 347.232 57.181,346.997 56.946,346.997 56.734 C 346.997 56.522,346.762 56.287,346.475 56.211 C 346.188 56.136,345.953 55.901,345.953 55.689 C 345.953 55.477,345.729 55.245,345.455 55.173 C 345.181 55.102,344.898 54.819,344.827 54.545 C 344.751 54.255,344.468 54.047,344.150 54.047 C 343.849 54.047,343.603 53.882,343.603 53.681 C 343.603 53.480,343.249 53.191,342.816 53.041 C 342.384 52.890,341.960 52.584,341.875 52.362 C 341.789 52.140,341.497 51.958,341.225 51.958 C 340.905 51.958,340.731 51.774,340.731 51.436 C 340.731 51.099,340.557 50.914,340.239 50.914 C 339.967 50.914,339.687 50.681,339.611 50.392 C 339.529 50.079,339.255 49.869,338.928 49.869 C 338.555 49.869,338.381 49.703,338.381 49.347 C 338.381 48.999,338.207 48.825,337.859 48.825 C 337.568 48.825,337.337 48.651,337.337 48.431 C 337.337 48.215,336.867 47.850,336.292 47.620 C 335.718 47.390,335.248 47.038,335.248 46.838 C 335.248 46.639,335.013 46.475,334.726 46.475 C 334.378 46.475,334.204 46.301,334.204 45.953 C 334.204 45.616,334.030 45.431,333.712 45.431 C 333.440 45.431,333.159 45.198,333.084 44.909 C 333.002 44.596,332.727 44.386,332.400 44.386 C 332.096 44.386,331.854 44.218,331.854 44.007 C 331.854 43.779,331.487 43.558,330.940 43.455 C 330.407 43.355,330.026 43.130,330.026 42.915 C 330.026 42.712,329.732 42.434,329.373 42.298 C 329.014 42.161,328.721 41.870,328.721 41.651 C 328.721 41.432,328.544 41.253,328.329 41.253 C 328.114 41.253,327.702 41.018,327.415 40.731 C 327.128 40.444,326.599 40.209,326.240 40.209 C 325.762 40.209,325.587 40.070,325.587 39.687 C 325.587 39.349,325.413 39.164,325.096 39.164 C 324.824 39.164,324.543 38.931,324.467 38.642 C 324.363 38.242,324.111 38.120,323.393 38.120 C 322.624 38.120,322.454 38.024,322.454 37.590 C 322.454 37.298,322.258 36.984,322.017 36.892 C 321.777 36.799,321.366 36.509,321.103 36.247 C 320.841 35.985,320.396 35.770,320.114 35.770 C 319.831 35.770,319.475 35.535,319.321 35.248 C 319.167 34.961,318.825 34.726,318.559 34.726 C 318.294 34.726,318.015 34.491,317.940 34.204 C 317.835 33.804,317.584 33.681,316.865 33.681 C 316.101 33.681,315.927 33.585,315.927 33.159 C 315.927 32.835,315.753 32.637,315.468 32.637 C 315.215 32.637,314.861 32.402,314.682 32.115 C 314.474 31.782,314.073 31.593,313.575 31.593 C 312.968 31.593,312.794 31.476,312.794 31.070 C 312.794 30.665,312.620 30.548,312.013 30.548 C 311.514 30.548,311.114 30.359,310.905 30.026 C 310.726 29.739,310.328 29.504,310.020 29.504 C 309.680 29.504,309.407 29.299,309.324 28.982 C 309.223 28.597,308.968 28.460,308.355 28.460 C 307.742 28.460,307.487 28.322,307.386 27.937 C 307.279 27.528,307.030 27.415,306.236 27.415 C 305.410 27.415,305.222 27.322,305.222 26.914 C 305.222 26.573,304.980 26.359,304.466 26.246 C 304.050 26.155,303.503 25.852,303.250 25.573 C 302.998 25.294,302.517 25.065,302.181 25.065 C 301.846 25.065,301.424 24.830,301.245 24.543 C 301.066 24.256,300.672 24.021,300.369 24.021 C 300.067 24.021,299.607 23.786,299.347 23.499 C 299.087 23.211,298.617 22.977,298.303 22.977 C 297.988 22.977,297.518 22.742,297.258 22.454 C 296.967 22.132,296.454 21.932,295.922 21.932 C 295.325 21.932,294.971 21.771,294.778 21.410 C 294.571 21.023,294.231 20.888,293.463 20.888 C 292.602 20.888,292.428 20.800,292.428 20.366 C 292.428 19.930,292.254 19.843,291.384 19.843 C 290.513 19.843,290.339 19.756,290.339 19.321 C 290.339 18.887,290.165 18.799,289.313 18.799 C 288.515 18.799,288.249 18.682,288.120 18.277 C 287.987 17.858,287.725 17.755,286.799 17.755 C 285.927 17.755,285.564 17.627,285.318 17.232 C 285.075 16.843,284.709 16.710,283.880 16.710 C 282.964 16.710,282.768 16.623,282.768 16.217 C 282.768 15.855,282.511 15.676,281.802 15.543 C 281.272 15.443,280.551 15.136,280.201 14.861 C 279.823 14.564,279.154 14.360,278.555 14.360 C 277.866 14.360,277.546 14.245,277.546 13.997 C 277.546 13.516,276.968 13.316,275.584 13.316 C 274.677 13.316,274.414 13.211,274.282 12.794 C 274.154 12.390,273.887 12.272,273.102 12.272 C 272.443 12.272,272.007 12.125,271.854 11.852 C 271.711 11.597,271.130 11.378,270.367 11.292 C 269.654 11.211,268.906 10.942,268.630 10.667 C 268.288 10.325,267.764 10.183,266.841 10.183 C 265.899 10.183,265.535 10.081,265.535 9.819 C 265.535 9.321,264.951 9.138,263.357 9.138 C 262.288 9.138,261.937 9.029,261.679 8.616 C 261.412 8.188,261.071 8.094,259.789 8.094 C 258.399 8.094,258.225 8.036,258.225 7.572 C 258.225 7.108,258.050 7.050,256.658 7.050 C 255.440 7.050,254.975 6.934,254.569 6.527 C 254.156 6.114,253.699 6.005,252.380 6.005 C 250.933 6.005,250.696 5.936,250.577 5.483 C 250.478 5.106,250.198 4.948,249.568 4.915 C 249.087 4.889,248.189 4.843,247.570 4.811 C 246.909 4.778,246.226 4.555,245.911 4.270 C 245.502 3.900,244.862 3.764,243.184 3.694 C 241.624 3.628,240.992 3.505,240.992 3.267 C 240.992 2.841,240.216 2.697,237.559 2.633 C 235.893 2.593,235.282 2.470,234.779 2.074 C 234.219 1.634,233.707 1.567,230.945 1.567 C 228.089 1.567,227.708 1.512,227.285 1.044 C 226.837 0.550,226.480 0.522,220.586 0.522 C 216.610 0.522,214.360 0.428,214.360 0.261 C 214.360 0.090,208.877 0.000,198.433 0.000 C 187.990 0.000,182.507 0.090,182.507 0.261 M218.538 26.721 C 220.477 26.952,223.238 27.257,224.674 27.399 C 227.360 27.665,228.783 27.862,233.290 28.596 C 234.726 28.829,236.723 29.130,237.728 29.264 C 238.734 29.399,240.085 29.673,240.731 29.874 C 241.377 30.076,242.772 30.372,243.829 30.532 C 244.887 30.692,245.968 30.939,246.231 31.079 C 246.493 31.220,247.390 31.443,248.224 31.576 C 249.057 31.708,250.444 32.009,251.305 32.245 C 254.960 33.244,256.620 33.721,258.143 34.209 C 259.031 34.493,259.973 34.726,260.236 34.726 C 260.498 34.726,261.151 34.961,261.687 35.248 C 262.223 35.535,262.926 35.773,263.250 35.776 C 263.573 35.779,264.350 36.014,264.976 36.298 C 265.602 36.582,266.312 36.815,266.553 36.815 C 266.794 36.815,267.452 37.050,268.016 37.337 C 268.579 37.624,269.241 37.859,269.486 37.859 C 269.731 37.859,270.264 38.034,270.671 38.247 C 271.077 38.461,272.232 38.938,273.238 39.306 C 274.935 39.929,276.436 40.552,279.373 41.853 C 280.020 42.139,280.901 42.520,281.332 42.700 C 283.915 43.777,292.403 47.888,293.734 48.706 C 294.236 49.015,295.411 49.682,296.345 50.189 C 298.502 51.360,302.466 53.647,303.655 54.406 C 306.194 56.027,310.913 59.129,311.488 59.554 C 311.847 59.820,312.960 60.589,313.961 61.263 C 314.962 61.937,316.019 62.716,316.311 62.992 C 316.602 63.269,317.369 63.857,318.016 64.298 C 318.662 64.739,320.131 65.878,321.279 66.829 C 322.428 67.780,323.810 68.884,324.351 69.282 C 324.892 69.680,325.838 70.498,326.453 71.100 C 327.069 71.701,328.653 73.234,329.974 74.505 L 332.376 76.817 332.376 91.759 C 332.376 99.978,332.301 106.777,332.209 106.868 C 332.117 106.960,331.389 106.439,330.591 105.710 C 329.793 104.980,328.841 104.194,328.474 103.963 C 327.870 103.581,327.069 102.875,324.282 100.266 C 323.779 99.796,322.898 99.103,322.324 98.727 C 321.749 98.350,321.162 97.912,321.018 97.753 C 320.524 97.207,316.433 93.995,316.231 93.995 C 316.120 93.995,315.565 93.566,314.999 93.043 C 314.432 92.519,313.352 91.693,312.598 91.207 C 311.844 90.721,310.845 89.993,310.378 89.589 C 309.912 89.185,308.971 88.531,308.288 88.136 C 307.606 87.740,306.959 87.264,306.852 87.079 C 306.745 86.893,306.063 86.405,305.335 85.995 C 304.608 85.584,302.963 84.555,301.680 83.709 C 296.941 80.581,296.256 80.157,295.953 80.157 C 295.782 80.157,295.430 79.922,295.170 79.634 C 294.910 79.347,294.597 79.112,294.474 79.112 C 294.161 79.112,289.578 76.487,289.406 76.208 C 289.328 76.082,289.052 75.979,288.793 75.979 C 288.533 75.979,288.022 75.744,287.657 75.457 C 287.292 75.170,286.822 74.935,286.613 74.935 C 286.404 74.935,285.934 74.700,285.568 74.413 C 285.203 74.125,284.733 73.890,284.524 73.890 C 284.315 73.890,283.863 73.678,283.521 73.418 C 282.553 72.683,280.723 72.223,280.268 72.601 C 279.665 73.101,279.713 133.305,280.318 134.168 C 281.090 135.271,282.722 135.759,284.762 135.496 C 288.006 135.078,318.354 135.186,318.944 135.618 C 319.555 136.065,319.578 167.294,318.968 167.685 C 318.803 167.791,310.076 167.879,299.575 167.881 C 282.139 167.885,280.451 167.923,280.123 168.317 C 279.123 169.522,279.600 207.601,280.639 209.526 C 280.948 210.098,281.201 210.748,281.201 210.969 C 281.201 211.191,281.374 211.618,281.584 211.919 C 281.795 212.220,282.046 212.981,282.143 213.609 C 282.239 214.238,282.478 215.069,282.673 215.457 C 283.089 216.282,283.142 217.653,282.767 217.885 C 282.624 217.974,282.372 218.579,282.208 219.229 C 281.913 220.404,279.872 222.454,278.998 222.454 C 278.818 222.454,278.399 222.689,278.068 222.977 C 277.737 223.264,277.276 223.499,277.045 223.499 C 276.813 223.499,276.201 223.725,275.684 224.002 C 275.167 224.279,274.317 224.586,273.795 224.684 C 273.273 224.782,272.846 224.962,272.846 225.084 C 272.846 225.206,272.405 225.425,271.867 225.571 C 271.328 225.717,270.422 226.074,269.853 226.364 C 269.285 226.655,268.576 226.893,268.280 226.893 C 267.983 226.893,267.494 227.065,267.193 227.276 C 266.892 227.487,266.132 227.738,265.503 227.833 C 264.875 227.929,264.170 228.172,263.937 228.374 C 263.703 228.576,262.940 228.838,262.239 228.957 C 261.539 229.075,260.614 229.363,260.183 229.597 C 259.752 229.831,259.047 230.028,258.616 230.033 C 258.185 230.039,257.363 230.271,256.789 230.548 C 256.214 230.826,255.358 231.057,254.885 231.062 C 254.413 231.067,253.566 231.305,253.003 231.593 C 252.440 231.880,251.475 232.116,250.859 232.116 C 250.243 232.117,249.386 232.306,248.956 232.536 C 248.525 232.766,247.326 233.053,246.292 233.173 C 245.257 233.294,244.141 233.562,243.811 233.769 C 243.481 233.976,242.352 234.226,241.302 234.323 C 240.252 234.420,238.956 234.653,238.424 234.841 C 237.891 235.029,236.462 235.271,235.248 235.379 C 234.034 235.486,232.619 235.723,232.103 235.905 C 231.588 236.087,229.881 236.323,228.311 236.430 C 226.741 236.537,225.009 236.782,224.461 236.975 C 223.914 237.167,221.858 237.390,219.892 237.469 C 217.927 237.549,214.615 237.786,212.533 237.997 C 206.983 238.559,198.635 238.900,198.238 238.580 C 197.886 238.297,197.731 27.406,198.081 26.492 C 198.309 25.899,213.029 26.064,218.538 26.721 M167.661 29.308 C 167.713 29.488,167.696 75.927,167.624 132.507 L 167.493 235.379 165.666 235.286 C 164.661 235.234,163.544 235.044,163.185 234.863 C 162.826 234.682,161.651 234.451,160.574 234.350 C 159.497 234.249,158.351 233.996,158.027 233.786 C 157.702 233.577,156.645 233.303,155.677 233.178 C 154.709 233.053,153.564 232.763,153.133 232.534 C 152.702 232.305,151.877 232.117,151.298 232.116 C 150.720 232.116,150.010 231.949,149.721 231.747 C 149.432 231.544,148.519 231.253,147.693 231.101 C 146.867 230.948,145.935 230.644,145.622 230.424 C 145.309 230.205,144.711 230.026,144.292 230.026 C 143.873 230.026,143.047 229.798,142.457 229.520 C 141.867 229.242,140.955 228.945,140.431 228.861 C 139.907 228.776,139.334 228.534,139.159 228.322 C 138.983 228.110,138.526 227.937,138.143 227.937 C 137.760 227.937,136.986 227.702,136.423 227.415 C 135.860 227.128,135.200 226.893,134.958 226.893 C 134.715 226.893,133.888 226.600,133.120 226.243 C 132.352 225.885,131.532 225.591,131.298 225.590 C 131.065 225.589,130.727 225.411,130.548 225.196 C 130.370 224.980,129.969 224.804,129.658 224.804 C 129.347 224.804,128.656 224.582,128.124 224.310 C 127.591 224.039,126.841 223.738,126.457 223.642 C 126.073 223.545,125.470 223.239,125.116 222.960 C 124.762 222.682,124.209 222.454,123.887 222.454 C 123.565 222.454,123.155 222.278,122.977 222.063 C 122.798 221.847,122.460 221.672,122.227 221.674 C 121.993 221.676,120.685 221.137,119.321 220.478 C 117.957 219.818,116.312 219.038,115.666 218.744 C 114.297 218.123,113.965 217.956,110.853 216.330 C 109.571 215.660,107.729 214.649,106.761 214.083 C 105.793 213.518,104.880 213.055,104.733 213.055 C 104.586 213.055,104.149 212.761,103.761 212.402 C 103.374 212.043,102.908 211.749,102.726 211.749 C 102.544 211.749,101.806 211.367,101.085 210.901 C 99.433 209.831,98.254 209.108,97.402 208.646 C 97.036 208.447,96.247 207.889,95.648 207.406 C 95.049 206.923,94.395 206.527,94.194 206.527 C 93.992 206.527,93.425 206.161,92.932 205.713 C 92.440 205.265,91.665 204.739,91.211 204.544 C 90.756 204.349,89.993 203.826,89.513 203.382 C 89.034 202.937,88.290 202.390,87.859 202.165 C 87.428 201.940,86.371 201.202,85.509 200.523 C 84.648 199.845,83.633 199.127,83.255 198.927 C 79.732 197.066,77.765 191.288,79.709 188.512 C 79.955 188.161,80.157 187.692,80.157 187.471 C 80.157 187.249,80.383 186.645,80.660 186.128 C 80.937 185.611,81.247 184.732,81.348 184.174 C 81.449 183.616,81.686 182.854,81.875 182.481 C 82.342 181.557,82.474 81.855,82.009 80.986 C 81.846 80.681,81.596 79.820,81.455 79.072 C 81.313 78.324,81.039 77.528,80.847 77.303 C 79.463 75.682,78.999 71.285,80.000 69.290 C 80.709 67.879,84.061 64.477,85.863 63.340 C 86.437 62.977,87.297 62.345,87.775 61.934 C 88.738 61.105,96.161 56.136,96.436 56.136 C 96.532 56.136,97.613 55.489,98.838 54.699 C 100.063 53.909,101.442 53.086,101.903 52.870 C 102.364 52.655,103.799 51.893,105.091 51.178 C 107.052 50.094,112.356 47.429,114.883 46.259 C 115.242 46.093,115.711 45.848,115.927 45.716 C 116.142 45.584,118.140 44.695,120.366 43.741 C 122.591 42.786,124.765 41.852,125.196 41.665 C 127.950 40.468,131.578 39.039,134.204 38.115 C 134.706 37.938,135.620 37.573,136.234 37.304 C 136.848 37.035,137.553 36.814,137.801 36.813 C 138.048 36.812,138.544 36.659,138.903 36.473 C 139.262 36.287,140.790 35.750,142.298 35.280 C 143.805 34.809,145.241 34.317,145.487 34.186 C 145.734 34.056,146.380 33.844,146.923 33.715 C 147.467 33.587,149.556 33.014,151.567 32.443 C 155.905 31.211,157.267 30.863,159.530 30.410 C 160.463 30.223,161.580 29.934,162.010 29.767 C 162.441 29.600,163.734 29.371,164.883 29.258 C 166.031 29.145,167.106 29.037,167.270 29.017 C 167.434 28.998,167.610 29.129,167.661 29.308 " stroke="none" fill="#733413" fill-rule="evenodd"></path></g></svg>
